<?xml version="1.0" encoding="utf-8"?>
<!-- Generator: Adobe Illustrator 23.0.5, SVG Export Plug-In . SVG Version: 6.00 Build 0)  -->
<svg version="1.1" id="Capa_1" xmlns="http://www.w3.org/2000/svg" xmlns:xlink="http://www.w3.org/1999/xlink" x="0px" y="0px"
	 width="13px" height="13px" viewBox="0 0 13 13" style="enable-background:new 0 0 13 13;" xml:space="preserve">
<style type="text/css">
	.st0{fill:#313131;}
</style>
<g>
	<path class="st0" d="M9.8,2.5C9.4,2.5,9,2.8,9,3.2S9.4,4,9.8,4s0.8-0.3,0.8-0.8C10.5,2.8,10.1,2.5,9.8,2.5z"/>
	<path class="st0" d="M12.6,3.9c0-0.7-0.1-1.1-0.3-1.5c-0.1-0.4-0.4-0.8-0.7-1.1S11,0.8,10.5,0.6C10.1,0.5,9.7,0.4,9,0.4
		S8.1,0.3,6.5,0.3S4.6,0.3,4,0.4c-0.7,0-1.1,0.1-1.5,0.3C2,0.8,1.6,1,1.4,1.4C1,1.7,0.8,2.1,0.7,2.5S0.4,3.3,0.4,4S0.3,4.8,0.3,6.5
		c0,1.6,0,1.9,0.1,2.5c0,0.7,0.1,1.1,0.3,1.5c0.1,0.4,0.4,0.8,0.7,1.1C1.6,12,2,12.2,2.5,12.4s0.8,0.3,1.5,0.3s0.9,0.1,2.5,0.1
		s1.9,0,2.5-0.1c0.7,0,1.1-0.1,1.5-0.3c0.8-0.3,1.5-1,1.8-1.8c0.1-0.4,0.3-0.8,0.3-1.5s0.1-0.9,0.1-2.5C12.6,4.8,12.6,4.6,12.6,3.9z
		 M11.5,9c0,0.6-0.1,1-0.2,1.2c-0.2,0.5-0.6,1-1.2,1.2c-0.2,0.1-0.5,0.2-1.2,0.2c-0.6,0-0.8,0.1-2.5,0.1s-1.9,0-2.5-0.1
		c-0.6,0-1-0.1-1.2-0.2c-0.3-0.1-0.5-0.3-0.7-0.5s-0.3-0.4-0.5-0.7c0.1-0.2,0-0.6,0-1.2S1.4,8.2,1.4,6.5s0-1.9,0.1-2.5
		c0-0.6,0.1-1,0.2-1.2C1.8,2.6,2,2.4,2.2,2.2s0.4-0.3,0.7-0.5c0.2,0,0.5-0.2,1.1-0.2s0.8-0.1,2.5-0.1s1.9,0,2.5,0.1
		c0.6,0,1,0.1,1.2,0.2c0.3,0.1,0.5,0.3,0.7,0.5s0.3,0.4,0.5,0.7c0.1,0.2,0.2,0.5,0.2,1.2s0.1,0.8,0.1,2.5C11.5,8.2,11.5,8.3,11.5,9z
		"/>
	<path class="st0" d="M6.5,3.3c-1.7,0-3.2,1.4-3.2,3.2s1.4,3.2,3.2,3.2s3.2-1.4,3.2-3.2S8.2,3.3,6.5,3.3z M6.5,8.5
		c-1.2,0-2.1-0.9-2.1-2.1s0.9-2.1,2.1-2.1s2.1,0.9,2.1,2.1C8.5,7.6,7.6,8.5,6.5,8.5z"/>
</g>
</svg>
