<?xml version="1.0" encoding="utf-8"?>
<!-- Generator: Adobe Illustrator 23.0.5, SVG Export Plug-In . SVG Version: 6.00 Build 0)  -->
<svg version="1.1" id="Layer_1" xmlns="http://www.w3.org/2000/svg" xmlns:xlink="http://www.w3.org/1999/xlink" x="0px" y="0px"
	 width="35px" height="35px" viewBox="0 0 35 35" style="enable-background:new 0 0 35 35;" xml:space="preserve">
<style type="text/css">
	.st0{fill:#3F729B;}
	.st1{fill:#FFFFFF;}
</style>
<rect x="0" y="0" class="st0" width="35" height="35"/>
<g>
	<path class="st1" d="M22.3,11.6c-0.6,0-1.1,0.5-1.1,1.1s0.5,1.1,1.1,1.1s1.1-0.5,1.1-1.1C23.3,12.1,22.8,11.6,22.3,11.6z"/>
	<path class="st1" d="M26.4,13.7c0-1-0.2-1.6-0.4-2.2c-0.2-0.6-0.6-1.1-1-1.6c-0.4-0.5-1-0.8-1.6-1c-0.6-0.2-1.2-0.4-2.2-0.4
		s-1.3-0.1-3.7-0.1c-2.4,0-2.7,0-3.7,0.1c-1,0-1.6,0.2-2.2,0.4C11,9.2,10.4,9.5,10,10c-0.5,0.4-0.8,1-1,1.6
		c-0.2,0.6-0.4,1.2-0.4,2.2S8.5,15,8.5,17.5c0,2.4,0,2.7,0.1,3.7c0,1,0.2,1.6,0.4,2.2c0.2,0.6,0.6,1.1,1,1.6c0.4,0.5,1,0.8,1.6,1
		c0.6,0.2,1.2,0.4,2.2,0.4c1,0,1.3,0.1,3.7,0.1c2.4,0,2.7,0,3.7-0.1c1,0,1.6-0.2,2.2-0.4c1.2-0.5,2.2-1.4,2.6-2.6
		c0.2-0.6,0.4-1.2,0.4-2.2c0-1,0.1-1.3,0.1-3.7C26.4,15,26.4,14.7,26.4,13.7z M24.8,21.1c0,0.9-0.2,1.4-0.3,1.7
		c-0.3,0.8-0.9,1.4-1.7,1.7c-0.3,0.1-0.8,0.3-1.7,0.3c-0.9,0-1.2,0.1-3.6,0.1s-2.7,0-3.6-0.1c-0.9,0-1.4-0.2-1.7-0.3
		c-0.4-0.1-0.7-0.4-1-0.7c-0.3-0.3-0.5-0.6-0.7-1c-0.1-0.3-0.3-0.8-0.3-1.7c0-0.9-0.1-1.2-0.1-3.6c0-2.4,0-2.7,0.1-3.6
		c0-0.9,0.2-1.4,0.3-1.7c0.1-0.4,0.4-0.7,0.7-1c0.3-0.3,0.6-0.5,1-0.7c0.3-0.1,0.8-0.3,1.7-0.3c0.9,0,1.2-0.1,3.6-0.1s2.7,0,3.6,0.1
		c0.9,0,1.4,0.2,1.7,0.3c0.4,0.1,0.7,0.4,1,0.7c0.3,0.3,0.5,0.6,0.7,1c0.1,0.3,0.3,0.8,0.3,1.7c0,0.9,0.1,1.2,0.1,3.6
		C24.8,19.9,24.8,20.1,24.8,21.1z"/>
	<path class="st1" d="M17.5,12.8c-2.5,0-4.6,2.1-4.6,4.6s2.1,4.6,4.6,4.6s4.6-2.1,4.6-4.6S20,12.8,17.5,12.8z M17.5,20.4
		c-1.7,0-3-1.3-3-3c0-1.7,1.3-3,3-3c1.7,0,3,1.3,3,3C20.4,19.1,19.1,20.4,17.5,20.4z"/>
</g>
</svg>
