<?xml version="1.0" encoding="utf-8"?>
<!-- Generator: Adobe Illustrator 23.0.5, SVG Export Plug-In . SVG Version: 6.00 Build 0)  -->
<svg version="1.1" id="Capa_1" xmlns="http://www.w3.org/2000/svg" xmlns:xlink="http://www.w3.org/1999/xlink" x="0px" y="0px"
	 width="13px" height="13px" viewBox="0 0 13 13" style="enable-background:new 0 0 13 13;" xml:space="preserve">
<style type="text/css">
	.st0{fill:#FFFFFF;stroke:#313131;stroke-width:0.75;stroke-miterlimit:10;}
</style>
<path class="st0" d="M6.8,0.3c0.7,0,1.4,0,2.1,0c0,0.8,0.3,1.6,0.9,2.2c0.6,0.6,1.4,0.9,2.2,0.9v2.1c-0.8,0-1.5-0.2-2.2-0.5
	C9.5,4.8,9.2,4.6,8.9,4.4c0,1.5,0,3.1,0,4.5c0,0.7-0.3,1.5-0.7,2.1c-0.7,1-1.9,1.7-3.1,1.7c-0.8,0-1.5-0.2-2.2-0.5
	c-1.1-0.6-1.8-1.8-1.9-3c0-0.3,0-0.5,0-0.8c0.1-1,0.6-2,1.4-2.6C3.2,5.1,4.5,4.7,5.6,5c0,0.8,0,1.6,0,2.3C5.1,7.1,4.5,7.2,4,7.5
	C3.7,7.7,3.4,8,3.3,8.4C3.2,8.7,3.2,9,3.2,9.3c0.1,0.9,1,1.6,1.8,1.5c0.6,0,1.2-0.3,1.5-0.8c0.1-0.2,0.2-0.4,0.2-0.6
	c0.1-0.9,0-1.9,0-2.8C6.8,4.4,6.8,2.4,6.8,0.3z"/>
</svg>
