<?xml version="1.0" encoding="utf-8"?>
<!-- Generator: Adobe Illustrator 23.0.5, SVG Export Plug-In . SVG Version: 6.00 Build 0)  -->
<svg version="1.1" id="Layer_1" xmlns="http://www.w3.org/2000/svg" xmlns:xlink="http://www.w3.org/1999/xlink" x="0px" y="0px"
	 width="35px" height="35px" viewBox="0 0 35 35" style="enable-background:new 0 0 35 35;" xml:space="preserve">
<style type="text/css">
	.st0{fill:#FFFFFF;}
</style>
<rect x="0" y="0" width="35" height="35"/>
<path class="st0" d="M25,15.9c-1.1,0-2.1-0.3-3-0.7c-0.4-0.1-0.8-0.4-1.2-0.7c0,2.1,0,4.3,0,6.3c0,1-0.4,2.1-1,2.9
	c-1,1.4-2.6,2.3-4.3,2.3c-1.1,0-2.1-0.3-3-0.7C11,24.6,10,23,9.9,21.3c0-0.4,0-0.7,0-1.1c0.1-1.4,0.8-2.8,1.9-3.6
	c1.1-1.1,2.9-1.7,4.4-1.2c0,1.1,0,2.2,0,3.2c-0.7-0.3-1.5-0.1-2.2,0.3c-0.4,0.3-0.8,0.7-1,1.2c-0.1,0.4-0.1,0.8-0.1,1.2
	c0.1,1.2,1.4,2.2,2.5,2.1c0.8,0,1.7-0.4,2.1-1.1c0.1-0.3,0.3-0.6,0.3-0.8c0.1-1.2,0-2.6,0-3.9c0.1-3,0.1-5.9,0.1-8.8
	c1,0,1.9,0,2.9,0c0,1.1,0.4,2.2,1.2,3c0.8,0.8,1.9,1.2,3,1.2V15.9z"/>
</svg>
