<?xml version="1.0" encoding="utf-8"?>
<!-- Generator: Adobe Illustrator 23.0.5, SVG Export Plug-In . SVG Version: 6.00 Build 0)  -->
<svg version="1.1" id="Capa_1" xmlns="http://www.w3.org/2000/svg" xmlns:xlink="http://www.w3.org/1999/xlink" x="0px" y="0px"
	 width="13px" height="13px" viewBox="0 0 13 13" style="enable-background:new 0 0 13 13;" xml:space="preserve">
<style type="text/css">
	.st0{fill:#FFFFFF;stroke:#313131;stroke-width:0.75;stroke-miterlimit:10;}
</style>
<path class="st0" d="M1.5,9.9c1,0.6,2.2,1,3.3,1c3.5,0,6.3-2.8,6.3-6.3c0-0.1,0-0.2,0-0.3c0.1-0.1,0.9-0.7,1.1-1.1
	c0,0-0.7,0.3-1.2,0.3l0,0l0,0c0.1-0.1,0.9-0.6,1-1.2c0,0-0.4,0.3-1.1,0.4c-0.1,0.1-0.3,0.1-0.3,0.1c-0.3-0.4-1-0.7-1.6-0.7
	c-1.1,0-2.1,1-2.1,2.2c0,0.2,0,0.3,0.1,0.5c-0.2,0-2.8-0.2-4.5-2.3c0,0-1,1.4,0.6,2.9c0,0-0.5,0-1-0.3c0,0-0.2,1.7,1.7,2.2
	c0,0-0.3,0.2-1,0.1c0,0,0.3,1.4,2,1.6C4.7,8.9,3.4,10.1,1.5,9.9L1.5,9.9z"/>
</svg>
