<?xml version="1.0" encoding="utf-8"?>
<!-- Generator: Adobe Illustrator 23.0.5, SVG Export Plug-In . SVG Version: 6.00 Build 0)  -->
<svg version="1.1" id="Capa_1" xmlns="http://www.w3.org/2000/svg" xmlns:xlink="http://www.w3.org/1999/xlink" x="0px" y="0px"
	 width="13px" height="13px" viewBox="0 0 13 13" style="enable-background:new 0 0 13 13;" xml:space="preserve">
<style type="text/css">
	.st0{fill:#FFFFFF;}
</style>
<path class="st0" d="M0.3,10.4c1.1,0.7,2.5,1.1,3.8,1.1c4,0,7.2-3.2,7.2-7.2c0-0.1,0-0.2,0-0.3c0.1-0.1,1-0.8,1.3-1.3
	c0,0-0.8,0.3-1.4,0.4l0,0l0,0c0.1-0.1,1-0.7,1.1-1.4c0,0-0.5,0.3-1.3,0.5c-0.1,0.1-0.3,0.1-0.4,0.1c-0.4-0.5-1.1-0.8-1.8-0.8
	C7.5,1.5,6.4,2.6,6.4,4c0,0.2,0,0.4,0.1,0.6c-0.2,0-3.2-0.2-5.2-2.6c0,0-1.2,1.6,0.7,3.3c0,0-0.6,0-1.1-0.3c0,0-0.2,2,2,2.5
	c0,0-0.4,0.2-1.1,0.1c0,0,0.4,1.6,2.3,1.8C4,9.3,2.5,10.7,0.3,10.4L0.3,10.4z"/>
</svg>
