<?xml version="1.0" encoding="utf-8"?>
<!-- Generator: Adobe Illustrator 23.0.5, SVG Export Plug-In . SVG Version: 6.00 Build 0)  -->
<svg version="1.1" id="Capa_1" xmlns="http://www.w3.org/2000/svg" xmlns:xlink="http://www.w3.org/1999/xlink" x="0px" y="0px"
	 width="35px" height="35px" viewBox="0 0 35 35" style="enable-background:new 0 0 35 35;" xml:space="preserve">
<style type="text/css">
	.st0{fill:#50ABF1;}
	.st1{fill:#FFFFFF;}
</style>
<rect class="st0" width="35" height="35"/>
<path class="st1" d="M7.7,24c1.8,1.1,3.9,1.8,6.1,1.8c6.3,0,11.5-5.1,11.5-11.5c0-0.2,0-0.3,0-0.5c0.2-0.2,1.6-1.3,2-2
	c0,0-1.2,0.5-2.3,0.6h0c0,0,0,0,0,0c0.1-0.1,1.6-1.1,1.8-2.2c0,0-0.8,0.4-2,0.8c-0.2,0.1-0.4,0.1-0.6,0.2c-0.7-0.8-1.8-1.3-2.9-1.3
	c-2.2,0-4,1.8-4,4c0,0.3,0,0.6,0.1,0.9c-0.3,0-5-0.3-8.3-4.2c0,0-1.9,2.6,1.1,5.3c0,0-0.9,0-1.7-0.5c0,0-0.3,3.2,3.2,4
	c0,0-0.7,0.3-1.8,0.1c0,0,0.6,2.6,3.7,2.8C13.6,22.3,11.2,24.5,7.7,24L7.7,24z"/>
</svg>
